<svg width="45" height="42" viewBox="0 0 45 42" fill="none" xmlns="http://www.w3.org/2000/svg">
<path fill-rule="evenodd" clip-rule="evenodd" d="M35.2134 22.0201C29.8083 22.0201 25.4267 26.4019 25.4267 31.8072C25.4267 37.2123 29.8083 41.594 35.2134 41.594C40.6185 41.594 45 37.2123 45 31.8072C45 26.4019 40.6185 22.0201 35.2134 22.0201ZM9.78669 22.021C4.3817 22.021 0 26.4019 0 31.8072C0 37.2123 4.3817 41.594 9.78669 41.594C15.1919 41.594 19.5738 37.2123 19.5738 31.8072C19.5738 26.4019 15.1919 22.021 9.78669 22.021ZM32.2865 9.78648C32.2865 15.1919 27.905 19.5741 22.5001 19.5741C17.0948 19.5741 12.7133 15.1919 12.7133 9.78648C12.7133 4.38212 17.0948 0 22.5001 0C27.905 0 32.2865 4.38212 32.2865 9.78648Z" fill="#F06A6A"/>
</svg>
