<svg width="205" height="205" xmlns="http://www.w3.org/2000/svg" xmlns:xlink="http://www.w3.org/1999/xlink"><defs><circle id="a" cx="102.5" cy="102.5" r="102.5"/></defs><g fill="none" fill-rule="evenodd"><mask id="b" fill="#fff"><use xlink:href="#a"/></mask><use fill="#FFF" xlink:href="#a"/><g mask="url(#b)"><path d="M110 181.03c1.234.074 2.285.228 3 .47-1.008-.424-2.012-.57-3-.47m2-.03c.336.059.664.1 1 .17a16.057 16.057 0 0 0-1-.17" fill="#202323"/><path d="M146 218l-.076-.24a69.179 69.179 0 0 0-.745-2.17c-.046-.127-.09-.254-.137-.381-.102-.27-.213-.536-.315-.805a44.118 44.118 0 0 0-.222-.566c-.09-.223-.172-.448-.263-.67l-.087-.209-.088-.205-.017-.036a61.67 61.67 0 0 0-.68-1.558c-.065-.141-.132-.282-.196-.423-.041-.091-.088-.18-.132-.27-.082-.176-.166-.35-.25-.524a58.462 58.462 0 0 0-.33-.681c-.077-.15-.144-.304-.22-.455l-.009-.019c-.137-.266-.277-.53-.417-.794v-.002a1.485 1.485 0 0 0-.047-.088 62.97 62.97 0 0 0-.587-1.09c-.055-.102-.114-.204-.17-.305l-.025-.045c-.135-.238-.272-.471-.41-.707-.084-.15-.171-.3-.259-.45l-.093-.165a53.41 53.41 0 0 0-.187-.308 16.42 16.42 0 0 0-.19-.32 70.919 70.919 0 0 0-.479-.772c-.058-.093-.12-.186-.178-.28-.05-.078-.1-.157-.152-.235l-.076-.122c-.105-.16-.207-.322-.312-.482l-.053-.076c-.04-.064-.085-.126-.128-.19l-.24-.358c-.23-.337-.461-.673-.695-1.007l-.055-.078-.018-.024c-.032-.049-.067-.097-.102-.145l-.216-.298a52.388 52.388 0 0 0-.587-.8c-.122-.165-.248-.328-.37-.492-.085-.108-.164-.216-.246-.323-.038-.046-.073-.094-.108-.14-.096-.125-.196-.248-.292-.372a77.27 77.27 0 0 0-.43-.535c-.21-.258-.417-.515-.627-.769-.044-.05-.085-.104-.125-.155h-.003c-.044-.055-.094-.107-.14-.161l-.22-.257c-.148-.175-.303-.346-.455-.52l.006-.01c-.155-.174-.313-.345-.47-.518l-.07-.08c-.068-.077-.135-.158-.205-.235l-.032-.038c-.044-.047-.09-.092-.131-.14-.105-.112-.205-.226-.31-.337l-.017-.02c-.129-.138-.26-.273-.392-.41a38.005 38.005 0 0 0-.735-.772c-.044-.047-.094-.093-.14-.14-.15-.152-.301-.302-.453-.452l-.295-.292a57.42 57.42 0 0 0-.558-.54c-.073-.07-.146-.144-.222-.215l-.032-.032c-.052-.05-.108-.1-.16-.151-.073-.07-.152-.135-.225-.204-.187-.172-.37-.344-.56-.514l-.223-.202c-.125-.112-.254-.225-.38-.336l-.13-.118-.255-.225-.061-.05c-.166-.144-.336-.282-.502-.423-.17-.144-.339-.288-.511-.43l-.184-.151a101.97 101.97 0 0 0-.29-.237c-.174-.141-.355-.28-.53-.42-.167-.13-.33-.261-.497-.39-.184-.143-.374-.283-.56-.425l-.012-.008c-.07-.054-.14-.11-.213-.164-.041-.031-.08-.064-.12-.094-.146-.11-.295-.215-.444-.323l-.009-.007-.003-.001-.11-.08c-.228-.165-.462-.326-.693-.488-.186-.13-.367-.262-.554-.39l-.251-.171-.003-.001-.003-.003-.132-.089-.114-.079a55.268 55.268 0 0 0-1.827-1.176 42.222 42.222 0 0 0-6.249-2.936c-.123-.04-.242-.065-.365-.1-.628-.142-1.55-.233-2.634-.276-2.134-.085-4.884.016-7.209.276v.274c-3.78-.67-10.286-.8-12.158-.174a42.222 42.222 0 0 0-6.248 2.936c-.631.388-1.25.792-1.866 1.204l-.208.14c-.505.343-1.007.695-1.503 1.054-.16.117-.321.24-.485.36-.14.104-.28.208-.42.314-.19.142-.38.283-.567.428-.187.144-.37.293-.558.44-.254.2-.508.4-.759.606l-.18.151c-.173.142-.342.286-.512.43a68.83 68.83 0 0 0-1.328 1.152l-.225.201c-.222.202-.441.407-.663.612-.178.168-.36.335-.537.505a56.808 56.808 0 0 0-.85.832 39.68 39.68 0 0 0-1.331 1.366c-.132.136-.263.27-.392.409l-.017.019-.038.042c-.397.431-.791.865-1.177 1.307l.006.014c-.149.173-.306.34-.455.515-.085.1-.173.2-.257.3a62.902 62.902 0 0 0-1.595 1.964l-.003.005a66.136 66.136 0 0 0-1.532 2.066l-.135.19a63.032 63.032 0 0 0-1.445 2.137l-.079.122a61.9 61.9 0 0 0-2.663 4.554c-.023.04-.044.082-.067.123a61.814 61.814 0 0 0-2.28 4.814l-.015.036A60.537 60.537 0 0 0 59 218h87" fill="#202323"/><path d="M102 130c-6.598 0-12 5.25-12 11.667v41.666C90 189.75 95.402 195 102 195s12-5.25 12-11.667v-41.666c0-6.417-5.402-11.667-12-11.667" fill="#F8CB93"/><path d="M102 196c-6.598 0-12-5.35-12-11.89v-14.066a57.14 57.14 0 0 0 11.896 1.244c4.166 0 8.218-.446 12.104-1.288v14.11c0 6.54-5.402 11.89-12 11.89" fill="#E7A47B"/><path d="M102 25c-27.498 0-50 20.162-50 44.803v55.394C52 149.839 74.502 170 102 170c27.501 0 50-20.161 50-44.803V69.803C152 45.162 129.501 25 102 25" fill="#F8CB93"/><path d="M52 71v-.111V71m0-.14v-.08.08m0-.12v-.068.068m.005-.115v-.065.065m0-.108v-.07.07m0-.29v-.024.024m.005-.1v-.03.03m0-.11V70v.017" fill="#C7BAB0"/><path d="M45 88V68.405c0-.013 0-.024.004-.036V68.053c0-.019 0-.04.004-.058V67.901c.16-8.977 3.229-17.444 8.513-24.901a25.094 25.094 0 0 0 5.74 5.806 72.7 72.7 0 0 0 4.387 2.95A79.622 79.622 0 0 0 69 54.787c-1.273 5.433-3.304 10.725-6.326 15.682-2.78 4.562-6.291 8.777-10.62 12.396C50.23 84.39 47.69 86.6 45 88" fill="#C59E77"/><path d="M102 25c-10.568 0-20.39 2.986-28.488 8.05h4.727v14.423h-2.104c-.281 10.012-2.379 20.083-7.393 28.847C65.27 82.39 59.225 90.187 52 92.497v32.7C52 149.839 74.502 170 102 170c27.501 0 50-20.161 50-44.803V69.803C152 45.162 129.501 25 102 25" fill="#F8CB93"/><path d="M152 70.117V70v.117" fill="#C7BAB0"/><path d="M159 96V72.049c0-.014 0-.028-.004-.042v-.387c0-.022 0-.048-.004-.07V71.434c-.16-10.971-3.229-21.32-8.513-30.434-1.543 2.666-3.468 5.079-5.74 7.097a73.71 73.71 0 0 1-4.387 3.604A77.228 77.228 0 0 1 135 55.408c1.273 6.64 3.304 13.108 6.326 19.166 2.78 5.576 6.291 10.728 10.62 15.15C153.77 91.59 156.31 94.29 159 96" fill="#C59E77"/><path d="M152 70.084V70v.084m0-.013V70v.071m0-.005V70v.066m0 0V70v.066m.005.04c0-.034 0-.072-.005-.106.005.035.005.07.005.105m-.005-.058V70v.047m0-.021V70v.026m0-.013V70v.014" fill="#C7BAB0"/><path d="M101.896 178.235c-4.092 0-8.073-.421-11.896-1.195v5.664C90 188.917 95.402 194 102 194s12-5.083 12-11.296V177a59.997 59.997 0 0 1-12.104 1.235" fill="#F8CB93"/><path d="M75 124h-6c-1.65 0-3-1.35-3-3s1.35-3 3-3h6c1.652 0 3 1.35 3 3s-1.348 3-3 3m60 0h-6c-1.65 0-3-1.35-3-3s1.35-3 3-3h6c1.65 0 3 1.35 3 3s-1.35 3-3 3" fill="#F2B987"/><path d="M78.252 95h-2.507C73.686 95 72 96.8 72 99s1.686 4 3.745 4h2.507c2.062 0 3.748-1.8 3.748-4s-1.686-4-3.748-4" fill="#202323"/><path d="M76.499 99a1.5 1.5 0 1 1 .002-3 1.5 1.5 0 0 1-.002 3m1.499 2A1 1 0 1 1 78 99.002a1 1 0 0 1-.002 1.998" fill="#8A8D89"/><path d="M127.252 95h-2.507c-2.059 0-3.745 1.8-3.745 4s1.686 4 3.745 4h2.507c2.062 0 3.748-1.8 3.748-4s-1.686-4-3.748-4" fill="#202323"/><path d="M124.499 99a1.5 1.5 0 1 1 .002-3 1.5 1.5 0 0 1-.002 3m3.499 2a1 1 0 1 1 .002-1.998 1 1 0 0 1-.002 1.998" fill="#8A8D89"/><path d="M85.782 85.154A87.234 87.234 0 0 0 68.71 86.95c-1.2.247-2.403-.431-2.663-1.548-.258-1.116.577-2.277 1.848-2.536A91.754 91.754 0 0 1 85.8 81c1.257-.007 2.24.952 2.2 2.093-.04 1.142-1.029 2.054-2.217 2.061m31.51 1.483a78.66 78.66 0 0 1 17.081 1.325 2.215 2.215 0 0 0 2.593-1.816c.217-1.244-.66-2.494-1.935-2.732a82.7 82.7 0 0 0-17.913-1.37c-1.253.042-2.197 1.14-2.114 2.4.083 1.261 1.103 2.23 2.288 2.193" fill="#51362C"/><path d="M53.974 43.324c1.162 3.9 3.343 7.49 6.398 10.117a52.743 52.743 0 0 0 3.158 2.512 56.145 56.145 0 0 0 6.058 3.866 62.105 62.105 0 0 0 6.57 3.136c16.597 6.887 37.04 8.298 54.156 2.102a57.054 57.054 0 0 0 7.11-3.128c12.812-6.503 22.213-19.195 21.542-33.89-18.805 10.687-34.922-8.685-51.668-13.798a44.578 44.578 0 0 0-5.554-1.409 38.464 38.464 0 0 0-5.852-.625c-4.332-.358-8.676-.257-12.914.346-8.479 1.206-16.524 4.423-23.131 9.963-1.39 1.264-2.612 2.641-3.628 4.136-3.04 4.483-4.226 10.031-2.245 16.672" fill="#6A4C3E"/><path d="M112.574 63c-2.107 0-2.095-3.365.015-3.381 4.643-.034 9.054-.887 13.414-2.51.202-.075.392-.109.57-.109 1.573 0 2.081 2.708.307 3.37A41.53 41.53 0 0 1 112.59 63h-.016" fill="#B2A195"/><path d="M88.25 137c-.162.482-.25.984-.25 1.498 0 4.145 5.597 7.502 12.5 7.502s12.5-3.357 12.5-7.502c0-.514-.088-1.016-.25-1.498h-24.5" fill="#FFFFFE"/><path d="M129.287 58c-.722.001-1.254-.655-1.286-1.428-.028-.731.548-1.358 1.18-1.423a1.228 1.228 0 0 1 .577-.149c.325 0 .632.18.866.42.234.24.376.659.376 1.01 0 .323-.137.797-.376 1.01-.416.363-.806.56-1.337.56m-.23-2.775a.88.88 0 0 0-.25.195c.083-.074.164-.14.25-.195m.348-.085a.774.774 0 0 0 .021 0h-.02" fill="#B2A195"/><path d="M102 17.908c-41.446 0-68.765 30.74-57.57 79.145l2.922-3.535c-4.294-21.237-.862-39.983 9.767-53.021C66.49 29 81.05 22.337 98.39 21.528h7.219c17.341.808 31.9 7.472 41.272 18.969 10.628 13.038 14.06 31.784 9.768 53.02l2.922 3.536C170.764 48.647 143.446 17.908 102 17.908" fill="#444546"/><path d="M102 19.908c-41.446 0-68.765 30.74-57.57 79.145l2.922-3.535c-4.294-21.237-.862-39.983 9.767-53.021C66.49 31 81.05 24.337 98.39 23.528h7.219c17.341.808 31.9 7.472 41.272 18.969 10.628 13.038 14.06 31.784 9.768 53.02l2.922 3.536C170.764 50.647 143.446 19.908 102 19.908" fill="#444546"/><path d="M102 21.908c-41.446 0-68.765 30.74-57.57 79.145l2.922-3.535c-4.294-21.237-.862-39.983 9.767-53.021C66.49 33 81.05 26.337 98.39 25.528h7.219c17.341.808 31.9 7.472 41.272 18.969 10.628 13.038 14.06 31.784 9.768 53.02l2.922 3.536C170.764 52.647 143.446 21.908 102 21.908" fill="#444546"/><path d="M152.786 36.785C141.313 22.736 123.489 15 102.212 15h-.424c-21.276 0-39.1 7.736-50.574 21.785C38.666 52.15 34.893 74.155 40.59 98.747l.758 3.215 2.78-4C32.876 49.393 60.338 18.549 102 18.549c41.663 0 69.124 30.844 57.873 79.415l.22.317 2.559 3.682.758-3.215c5.697-24.591 1.924-46.597-10.624-61.962" fill="#A799FA"/><path d="M48.748 123.458l-5.336-37.13c-2.223 4.89-3.093 11.751-2.028 19.16 1.064 7.41 3.84 13.807 7.364 17.97" fill="#ACADA9"/><path d="M49.549 79.485c-1.783.412-3.43 1.297-4.899 2.56-.782.67-1.16 1.591-1.084 2.528L46.7 123.93c.075.936.598 1.84 1.483 2.477 1.667 1.197 3.447 2.012 5.29 2.349 1.108.202 2.124-.47 2.05-1.377l-3.71-46.606c-.074-.907-1.193-1.535-2.264-1.288" fill="#202323"/><path d="M163.594 105.488c1.064-7.409.194-14.27-2.03-19.16l-5.335 37.13c3.524-4.163 6.3-10.56 7.365-17.97" fill="#ACADA9"/><path d="M152.356 80.86l-2.083 46.707c-.041.91.998 1.546 2.098 1.305 1.83-.401 3.582-1.278 5.205-2.532.862-.667 1.353-1.59 1.395-2.527l1.76-39.443c.041-.939-.368-1.847-1.172-2.49-1.514-1.21-3.19-2.036-4.986-2.386-1.08-.21-2.176.458-2.217 1.366" fill="#202323"/></g></g></svg>