<svg xmlns="http://www.w3.org/2000/svg" viewBox="0 0 48 48"><linearGradient id="a" gradientUnits="userSpaceOnUse" x1="-644.292" y1="401.021" x2="-643.292" y2="401.021" gradientTransform="matrix(48 0 0 -48 30926 19273)"><stop offset="0" stop-color="#fbc67a"/><stop offset="1" stop-color="#ffa561"/></linearGradient><path fill="url(#a)" d="M24 48C10.745 48 0 37.255 0 24S10.745 0 24 0s24 10.745 24 24-10.745 24-24 24zm2.842-12.324h5.213c1.344 0 2.444-1.344 2.444-2.987s-1.1-2.987-2.444-2.987H16.307c-1.344 0-2.444 1.344-2.444 2.987s1.1 2.987 2.444 2.987h5.213a2.716 2.716 0 0 1 5.322 0zm5.213-17.378c1.344 0 2.444-1.344 2.444-2.987s-1.1-2.987-2.444-2.987H16.307c-1.344 0-2.444 1.344-2.444 2.987s1.1 2.987 2.444 2.987h15.748zm-20.857 8.689h25.966c1.521 0 2.766-1.344 2.766-2.987s-1.245-2.987-2.766-2.987H11.198c-1.521 0-2.766 1.343-2.766 2.987 0 1.643 1.245 2.987 2.766 2.987z"/></svg>